<svg width="1655" height="308" viewBox="0 0 1655 308" fill="none" xmlns="http://www.w3.org/2000/svg">
<line x1="14.0928" y1="49.5" x2="758.132" y2="49.5" stroke="#333333"/>
<line x1="1353.36" y1="49.5" x2="1650.98" y2="49.5" stroke="#333333"/>
<line x1="906.939" y1="49.5" x2="1279.96" y2="49.5" stroke="#333333"/>
<line x1="906.939" y1="92.5" x2="1650.98" y2="92.5" stroke="#333333"/>
<line x1="906.939" y1="135.5" x2="1650.98" y2="135.5" stroke="#333333"/>
<line x1="906.939" y1="178.5" x2="1650.98" y2="178.5" stroke="#333333"/>
<line x1="906.939" y1="221.5" x2="1650.98" y2="221.5" stroke="#333333"/>
<line x1="1130.15" y1="264.5" x2="1650.98" y2="264.5" stroke="#333333"/>
<line x1="1055.75" y1="307.5" x2="1204.55" y2="307.5" stroke="#333333"/>
<line x1="1278.96" y1="307.5" x2="1503.18" y2="307.5" stroke="#333333"/>
<line x1="1576.57" y1="307.5" x2="1651.98" y2="307.5" stroke="#333333"/>
<line x1="1427.77" y1="6.5" x2="1577.58" y2="6.50001" stroke="#333333"/>
<line x1="1055.75" y1="6.5" x2="1278.96" y2="6.5" stroke="#333333"/>
<line x1="906.939" y1="6.5" x2="983.354" y2="6.5" stroke="#333333"/>
<line x1="14.0928" y1="135.5" x2="758.132" y2="135.5" stroke="#333333"/>
<line x1="14.0928" y1="221.5" x2="758.132" y2="221.5" stroke="#333333"/>
<line x1="88.4971" y1="307.5" x2="238.31" y2="307.5" stroke="#333333"/>
<line x1="162.9" y1="6.5" x2="238.31" y2="6.5" stroke="#333333"/>
<line x1="36.6963" y1="3.5" x2="109.127" y2="3.50001" stroke="#E50C44" stroke-width="7" stroke-linecap="round"/>
<line x1="311.708" y1="6.5" x2="461.521" y2="6.50001" stroke="#333333"/>
<line x1="534.92" y1="6.5" x2="684.733" y2="6.50001" stroke="#333333"/>
<line y1="-0.5" x2="343.743" y2="-0.5" transform="matrix(0.865809 0.500374 -0.504463 0.863433 14.0928 50)" stroke="#333333"/>
<line y1="-0.5" x2="515.614" y2="-0.5" transform="matrix(0.865809 0.500374 -0.504463 0.863433 88.4971 50)" stroke="#333333"/>
<line y1="-0.5" x2="85.9357" y2="-0.5" transform="matrix(0.865809 0.500374 -0.504463 0.863433 386.112 265)" stroke="#333333"/>
<line y1="-0.5" x2="429.678" y2="-0.5" transform="matrix(0.865809 0.500374 -0.504463 0.863433 162.9 50)" stroke="#333333"/>
<line y1="-0.5" x2="345.114" y2="-0.5" transform="matrix(0.865283 0.501284 -0.505375 0.8629 13.0869 92)" stroke="#333333"/>
<line y1="-0.5" x2="259.178" y2="-0.5" transform="matrix(0.865108 0.501586 -0.505677 0.862723 13.0869 135)" stroke="#333333"/>
<line y1="-0.5" x2="259.178" y2="-0.5" transform="matrix(0.865108 0.501586 -0.505677 0.862723 13.0869 178)" stroke="#333333"/>
<line y1="-0.5" x2="171.871" y2="-0.5" transform="matrix(0.865809 0.500374 -0.504463 0.863433 14.0928 222)" stroke="#333333"/>
<line y1="-0.5" x2="429.678" y2="-0.5" transform="matrix(0.865809 0.500374 -0.504463 0.863433 162.9 7)" stroke="#333333"/>
<line y1="-0.5" x2="515.614" y2="-0.5" transform="matrix(0.865809 0.500374 -0.504463 0.863433 311.708 50)" stroke="#333333"/>
<line y1="-0.5" x2="515.614" y2="-0.5" transform="matrix(0.865809 0.500374 -0.504463 0.863433 311.708 7)" stroke="#333333"/>
<line y1="-0.5" x2="343.743" y2="-0.5" transform="matrix(0.865809 0.500374 -0.504463 0.863433 386.112 7)" stroke="#333333"/>
<line y1="-0.5" x2="257.807" y2="-0.5" transform="matrix(0.865809 0.500374 -0.504463 0.863433 534.92 50)" stroke="#333333"/>
<line y1="-0.5" x2="257.807" y2="-0.5" transform="matrix(0.865809 0.500374 -0.504463 0.863433 534.92 7)" stroke="#333333"/>
<line y1="-0.5" x2="171.871" y2="-0.5" transform="matrix(0.865809 0.500374 -0.504463 0.863433 609.324 7)" stroke="#333333"/>
<line y1="-0.5" x2="85.9357" y2="-0.5" transform="matrix(0.865809 0.500374 -0.504463 0.863433 906.939 179)" stroke="#333333"/>
<line y1="-0.5" x2="171.871" y2="-0.5" transform="matrix(0.865809 0.500374 -0.504463 0.863433 906.939 136)" stroke="#333333"/>
<line y1="-0.5" x2="343.743" y2="-0.5" transform="matrix(0.865809 0.500374 -0.504463 0.863433 906.939 93)" stroke="#333333"/>
<line y1="-0.5" x2="515.614" y2="-0.5" transform="matrix(0.865809 0.500374 -0.504463 0.863433 906.939 50)" stroke="#333333"/>
<line y1="-0.5" x2="601.55" y2="-0.5" transform="matrix(0.865809 0.500374 -0.504463 0.863433 906.939 7)" stroke="#333333"/>
<line y1="-0.5" x2="515.614" y2="-0.5" transform="matrix(0.865809 0.500374 -0.504463 0.863433 1055.75 50)" stroke="#333333"/>
<line y1="-0.5" x2="515.614" y2="-0.5" transform="matrix(0.865809 0.500374 -0.504463 0.863433 1055.75 7)" stroke="#333333"/>
<line y1="-0.5" x2="601.55" y2="-0.5" transform="matrix(0.865809 0.500374 -0.504463 0.863433 1130.15 7)" stroke="#333333"/>
<line y1="-0.5" x2="343.743" y2="-0.5" transform="matrix(0.865809 0.500374 -0.504463 0.863433 1353.36 93)" stroke="#333333"/>
<line y1="-0.5" x2="85.9357" y2="-0.5" transform="matrix(0.865809 0.500374 -0.504463 0.863433 1204.55 7)" stroke="#333333"/>
<line y1="-0.5" x2="343.743" y2="-0.5" transform="matrix(0.865809 0.500374 -0.504463 0.863433 1353.36 50)" stroke="#333333"/>
<line y1="-0.5" x2="85.9357" y2="-0.5" transform="matrix(0.865809 0.500374 -0.504463 0.863433 1576.57 136)" stroke="#333333"/>
<line y1="-0.5" x2="85.9357" y2="-0.5" transform="matrix(0.865809 0.500374 -0.504463 0.863433 1427.77 50)" stroke="#333333"/>
<line y1="-0.5" x2="171.871" y2="-0.5" transform="matrix(0.865809 0.500374 -0.504463 0.863433 1427.77 7)" stroke="#333333"/>
<line y1="-0.5" x2="171.871" y2="-0.5" transform="matrix(0.865809 0.500374 -0.504463 0.863433 1502.17 7)" stroke="#333333"/>
<line x1="163.4" y1="7" x2="163.4" y2="307" stroke="#333333"/>
<line x1="310.5" y1="7" x2="310.5" y2="265" stroke="#333333"/>
<line x1="458.5" y1="7" x2="458.5" y2="308" stroke="#333333"/>
<line x1="609.824" y1="7" x2="609.824" y2="308" stroke="#333333"/>
<line x1="758.632" y1="49" x2="758.632" y2="308" stroke="#333333"/>
<line x1="907.439" y1="7" x2="907.439" y2="222" stroke="#333333"/>
<line x1="1056.25" y1="7" x2="1056.25" y2="222" stroke="#333333"/>
<line x1="1205.05" y1="7" x2="1205.05" y2="308" stroke="#333333"/>
<line x1="1353.86" y1="22" x2="1353.86" y2="308" stroke="#333333"/>
<line x1="1502.67" y1="7" x2="1502.67" y2="308" stroke="#333333"/>
<line x1="1651.48" y1="54" x2="1651.48" y2="308" stroke="#333333"/>
<line x1="1651.48" y1="49" x2="1651.48" y2="93" stroke="#333333"/>
<line x1="88.9971" y1="49" x2="88.9971" y2="308" stroke="#333333"/>
<line x1="14.5928" y1="49" x2="14.5928" y2="265" stroke="#333333"/>
<line x1="237.805" y1="7" x2="237.805" y2="308" stroke="#333333"/>
<line x1="386.612" y1="7" x2="386.612" y2="308" stroke="#333333"/>
<line x1="535.42" y1="7" x2="535.42" y2="308" stroke="#333333"/>
<line x1="684.228" y1="7" x2="684.228" y2="308" stroke="#333333"/>
<line x1="981.844" y1="7" x2="981.844" y2="222" stroke="#333333"/>
<line x1="1130.65" y1="7" x2="1130.65" y2="265" stroke="#333333"/>
<line x1="1279.46" y1="7" x2="1279.46" y2="308" stroke="#333333"/>
<line x1="1428.27" y1="7" x2="1428.27" y2="308" stroke="#333333"/>
<line x1="1577.07" y1="57" x2="1577.07" y2="308" stroke="#333333"/>
<line x1="1577.07" y1="6" x2="1577.07" y2="93" stroke="#333333"/>
<line x1="14.0928" y1="93" x2="1279.96" y2="93" stroke="#D5456A" stroke-width="4"/>
<line x1="14.0928" y1="178.5" x2="758.132" y2="178.5" stroke="#333333"/>
<line x1="14.0928" y1="264.5" x2="312.714" y2="264.5" stroke="#333333"/>
<line x1="386.112" y1="264.5" x2="535.926" y2="264.5" stroke="#333333"/>
<line x1="609.324" y1="264.5" x2="759.137" y2="264.5" stroke="#333333"/>
<line y1="-0.5" x2="85.9357" y2="-0.5" transform="matrix(0.865809 0.500374 -0.504463 0.863433 609.324 265)" stroke="#333333"/>
<line x1="386.112" y1="307.5" x2="535.926" y2="307.5" stroke="#333333"/>
<line x1="609.324" y1="307.5" x2="759.137" y2="307.5" stroke="#333333"/>
<line x1="14.082" y1="92" x2="14.082" y2="179" stroke="#D5456A" stroke-width="4"/>
<line x1="386.102" y1="92" x2="386.102" y2="179" stroke="#D5456A" stroke-width="4"/>
<line x1="906.929" y1="92" x2="906.929" y2="179" stroke="#D5456A" stroke-width="4"/>
<line x1="1278.95" y1="92" x2="1278.95" y2="179" stroke="#D5456A" stroke-width="4"/>
<circle cx="14.0931" cy="92.0003" r="8.0218" fill="#E50C44"/>
<circle cx="386.113" cy="92.0003" r="8.0218" fill="#E50C44"/>
<circle cx="1278.96" cy="92.0003" r="8.0218" fill="#E50C44"/>
<circle cx="906.94" cy="92.0003" r="8.0218" fill="#E50C44"/>
<circle cx="14.0928" cy="177.999" r="14.0382" fill="#E50C44"/>
<circle cx="386.112" cy="177.999" r="14.0382" fill="#E50C44"/>
<circle cx="906.94" cy="177.999" r="14.0382" fill="#E50C44"/>
<circle cx="1278.96" cy="177.999" r="14.0382" fill="#E50C44"/>
<circle cx="163.403" cy="92.4998" r="3.50954" fill="#E50C44"/>
<circle cx="609.827" cy="92.4998" r="3.50954" fill="#E50C44"/>
<circle cx="163.403" cy="178.5" r="3.50954" fill="#B1B1B1"/>
<circle cx="237.807" cy="221.5" r="3.50954" fill="#E50C44"/>
<circle cx="535.423" cy="135.5" r="3.50954" fill="#E50C44"/>
<circle cx="684.23" cy="6.50954" r="3.50954" fill="#E50C44"/>
<circle cx="1428.27" cy="92.4998" r="3.50954" fill="#E50C44"/>
<circle cx="1279.46" cy="6.50954" r="3.50954" fill="#E50C44"/>
<circle cx="1502.67" cy="178.5" r="3.50954" fill="#E50C44"/>
<circle cx="1651.49" cy="178.5" r="3.50954" fill="#E50C44"/>
<circle cx="312.211" cy="221.5" r="3.50954" fill="#B1B1B1"/>
<circle cx="312.211" cy="135.5" r="3.50954" fill="#B1B1B1"/>
<circle cx="312.211" cy="49.4998" r="3.50954" fill="#E50C44"/>
<circle cx="237.807" cy="49.4998" r="3.50954" fill="#B1B1B1"/>
<circle cx="461.018" cy="49.4998" r="3.50954" fill="#B1B1B1"/>
<circle cx="684.23" cy="135.5" r="3.50954" fill="#B1B1B1"/>
<circle cx="758.635" cy="49.4998" r="3.50954" fill="#B1B1B1"/>
<circle cx="1502.67" cy="49.4998" r="3.50954" fill="#B1B1B1"/>
<circle cx="1577.08" cy="221.5" r="3.50954" fill="#B1B1B1"/>
<circle cx="1353.86" cy="92.4998" r="3.50954" fill="#B1B1B1"/>
<circle cx="1205.06" cy="49.4998" r="3.50954" fill="#B1B1B1"/>
<circle cx="1056.25" cy="178.5" r="3.50954" fill="#E50C44"/>
<circle cx="1205.06" cy="92.4998" r="3.50954" fill="#E50C44"/>
<circle cx="1056.25" cy="49.4998" r="3.50954" fill="#E50C44"/>
<circle cx="981.845" cy="135.5" r="3.50954" fill="#B1B1B1"/>
<circle cx="907.442" cy="49.4998" r="3.50954" fill="#B1B1B1"/>
<circle cx="1651.48" cy="92.4998" r="3.50954" fill="#B1B1B1"/>
<circle cx="758.635" cy="221.5" r="3.50954" fill="#B1B1B1"/>
<path d="M8.86766 184V170.44H14.8917C16.4597 170.44 17.6677 170.744 18.5157 171.352C19.3797 171.96 19.8117 172.816 19.8117 173.92C19.8117 175.024 19.4357 175.872 18.6837 176.464C17.9317 177.056 16.9557 177.352 15.7557 177.352L16.0917 176.8C17.5157 176.8 18.6117 177.104 19.3797 177.712C20.1637 178.304 20.5557 179.184 20.5557 180.352C20.5557 181.504 20.1157 182.4 19.2357 183.04C18.3557 183.68 17.0357 184 15.2757 184H8.86766ZM10.5957 182.656H15.2277C16.3957 182.656 17.2837 182.464 17.8917 182.08C18.4997 181.68 18.8037 181.064 18.8037 180.232C18.8037 179.384 18.4997 178.768 17.8917 178.384C17.2837 178 16.3957 177.808 15.2277 177.808H10.3077V176.464H14.7717C15.8277 176.464 16.6437 176.264 17.2197 175.864C17.8117 175.464 18.1077 174.88 18.1077 174.112C18.1077 173.344 17.8117 172.768 17.2197 172.384C16.6437 171.984 15.8277 171.784 14.7717 171.784H10.5957V182.656Z" fill="white"/>
<path d="M381.728 185V171.44H386.984C388.168 171.44 389.176 171.624 390.008 171.992C390.856 172.36 391.512 172.896 391.976 173.6C392.44 174.288 392.672 175.128 392.672 176.12C392.672 177.096 392.44 177.936 391.976 178.64C391.512 179.344 390.856 179.88 390.008 180.248C389.176 180.616 388.168 180.8 386.984 180.8H382.688L383.456 180.008V185H381.728ZM383.456 180.176L382.784 179.36H386.912C388.224 179.36 389.224 179.08 389.912 178.52C390.6 177.944 390.944 177.144 390.944 176.12C390.944 175.08 390.6 174.28 389.912 173.72C389.224 173.16 388.224 172.88 386.912 172.88H382.784L383.456 172.064V180.176Z" fill="white"/>
<path d="M901.571 185V171.44H907.259C908.795 171.44 910.115 171.728 911.219 172.304C912.323 172.864 913.171 173.656 913.763 174.68C914.371 175.688 914.675 176.864 914.675 178.208C914.675 179.568 914.371 180.76 913.763 181.784C913.171 182.792 912.323 183.584 911.219 184.16C910.115 184.72 908.795 185 907.259 185H901.571ZM903.299 183.56H907.187C908.403 183.56 909.443 183.336 910.307 182.888C911.171 182.44 911.827 181.816 912.275 181.016C912.723 180.216 912.947 179.28 912.947 178.208C912.947 177.136 912.723 176.2 912.275 175.4C911.827 174.6 911.171 173.984 910.307 173.552C909.443 173.104 908.403 172.88 907.187 172.88H903.299V183.56Z" fill="white"/>
<path d="M1276.95 177.92H1284.25V179.384H1276.95V177.92ZM1277.24 185H1275.51V171.44H1285.09V172.88H1277.24V185Z" fill="white"/>
</svg>
