<svg width="77" height="77" viewBox="0 0 77 77" fill="none" xmlns="http://www.w3.org/2000/svg">
<path d="M29.2149 18.2191L27.9294 15.3291C27.0904 13.4408 26.6694 12.4966 26.041 11.7725C25.2549 10.8657 24.2289 10.199 23.0809 9.84906C22.1654 9.56836 21.1319 9.56836 19.0617 9.56836C16.0378 9.56836 14.5258 9.56836 13.2563 10.1489C11.6902 10.9098 10.4779 12.2455 9.87193 13.8778C9.41579 15.1952 9.54657 16.5508 9.80813 19.2653C12.5939 48.133 28.4217 63.9597 57.2914 66.7454C60.0028 67.007 61.3584 67.1378 62.679 66.6816C64.3095 66.0757 65.6439 64.8648 66.4047 63.3005C66.9852 62.0277 66.9852 60.5158 66.9852 57.4918C66.9852 55.4217 66.9852 54.3882 66.7045 53.4727C66.3546 52.3247 65.6879 51.2987 64.7811 50.5126C64.0602 49.8842 63.1128 49.4663 61.2245 48.6242L58.3345 47.3419C56.2866 46.4328 55.2659 45.9767 54.226 45.8778C53.2304 45.7822 52.2262 45.9221 51.2946 46.2861C50.3217 46.6657 49.4637 47.3802 47.7412 48.8156C46.0283 50.2414 45.1734 50.9528 44.1271 51.3355C43.1229 51.6828 42.0519 51.7931 40.998 51.6577C39.8943 51.4982 39.0522 51.0453 37.3616 50.1426C32.1144 47.3355 29.218 44.4424 26.411 39.192C25.5083 37.5014 25.0585 36.6593 24.8959 35.5556C24.76 34.503 24.8692 33.4331 25.2148 32.4296C25.5976 31.3802 26.3121 30.5253 27.738 28.8124C29.1734 27.0899 29.8911 26.2319 30.2675 25.259C30.6311 24.3275 30.7715 23.3228 30.6758 22.3275C30.5801 21.2909 30.1239 20.2669 29.2117 18.2191" stroke="#C4C4C4" stroke-width="3.1898" stroke-linecap="round" stroke-linejoin="round"/>
</svg>
